<?xml version="1.0" encoding="UTF-8"?>
<svg id="Ebene_1" data-name="Ebene 1" xmlns="http://www.w3.org/2000/svg" version="1.1" viewBox="0 0 634 137">
  <defs>
    <style>
      .cls-1 {
        stroke-width: 1.07px;
      }

      .cls-1, .cls-2, .cls-3 {
        fill: #fff;
        stroke: #fff;
      }

      .cls-1, .cls-3 {
        stroke-miterlimit: 4.29;
      }

      .cls-2 {
        stroke-width: 1.07px;
      }

      .cls-4 {
        fill: #235b29;
      }

      .cls-4, .cls-5 {
        stroke-width: 0px;
      }

      .cls-3 {
        stroke-width: .93px;
      }

      .cls-5 {
        fill: #629c68;
      }
    </style>
  </defs>
  <g>
    <path class="cls-5" d="M143.14,98.01v-52.2h22.49c3.88,0,7.27.77,10.18,2.29,2.91,1.53,5.17,3.69,6.8,6.46,1.62,2.78,2.43,6.03,2.43,9.74s-.83,6.97-2.49,9.69c-1.66,2.72-3.98,4.82-6.97,6.31-2.99,1.48-6.47,2.22-10.44,2.22h-7.85v15.48h-14.15ZM157.3,71.52h4.98c2.5,0,4.46-.65,5.87-1.96,1.41-1.31,2.12-3.06,2.12-5.25s-.71-4.02-2.12-5.27c-1.41-1.25-3.37-1.87-5.87-1.87h-4.98v14.36Z"/>
    <path class="cls-5" d="M190.44,98.01v-39.17h13.66v7.5h.42c.7-2.78,1.83-4.8,3.38-6.08,1.55-1.27,3.37-1.91,5.45-1.91,1.19,0,2.38.19,3.57.56v11.98c-.7-.26-1.56-.44-2.57-.54-1.02-.11-1.89-.16-2.61-.16-2.08,0-3.8.68-5.17,2.03-1.37,1.35-2.05,3.15-2.05,5.4v20.39h-14.08Z"/>
    <path class="cls-5" d="M230.66,98.64c-3.76,0-6.83-.93-9.2-2.8s-3.56-4.74-3.56-8.62c0-2.87.64-5.19,1.91-6.94,1.27-1.75,3-3.07,5.17-3.94,2.17-.88,4.6-1.41,7.29-1.59,3.27-.23,5.59-.58,6.97-1.03,1.38-.46,2.07-1.26,2.07-2.4v-.14c0-1-.4-1.78-1.19-2.33-.79-.55-1.87-.82-3.22-.82s-2.47.29-3.42.86c-.95.57-1.53,1.45-1.77,2.64l-12.68-1.26c.37-2.19,1.28-4.19,2.73-5.99,1.45-1.8,3.45-3.23,6.01-4.31s5.67-1.61,9.34-1.61,6.94.57,9.69,1.7c2.75,1.13,4.87,2.67,6.36,4.61,1.49,1.94,2.24,4.11,2.24,6.52v26.84h-13.17v-5.53h-.28c-1.19,2.2-2.73,3.77-4.62,4.73-1.89.96-4.11,1.44-6.66,1.44ZM235.22,89.74c1.59,0,3.02-.49,4.31-1.47,1.28-.98,1.93-2.36,1.93-4.14v-3.22c-1.45.56-3.32,1.03-5.61,1.4-1.64.26-2.83.75-3.57,1.47-.75.72-1.12,1.59-1.12,2.59,0,1.1.38,1.93,1.14,2.5.76.57,1.73.86,2.93.86Z"/>
    <path class="cls-5" d="M281.26,113.5c-5.35,0-9.69-.99-13.02-2.98-3.33-1.99-5.27-4.66-5.83-8.02l12.37-1.82c.21,1.05.88,1.88,2.02,2.47,1.13.59,2.6.89,4.4.89,4.53,0,6.8-2.03,6.8-6.1v-6.66h-1.02c-.75,1.99-2.01,3.52-3.78,4.61-1.78,1.09-3.98,1.63-6.62,1.63-2.78,0-5.34-.65-7.67-1.94-2.34-1.3-4.21-3.35-5.62-6.15-1.41-2.8-2.12-6.46-2.12-10.97,0-4.74.74-8.59,2.22-11.55,1.48-2.95,3.39-5.12,5.73-6.5,2.33-1.38,4.8-2.07,7.39-2.07,2.9,0,5.28.73,7.17,2.17,1.88,1.45,3.21,3.18,3.98,5.19h.28v-6.87h13.94v37.7c0,3.67-.86,6.76-2.57,9.28-1.72,2.52-4.12,4.43-7.2,5.73-3.08,1.29-6.69,1.94-10.83,1.94ZM281.75,87.5c1.94,0,3.46-.8,4.57-2.4,1.11-1.6,1.66-3.81,1.66-6.64s-.56-5.2-1.66-6.85c-1.11-1.65-2.63-2.47-4.57-2.47s-3.41.82-4.48,2.47c-1.07,1.65-1.61,3.93-1.61,6.85s.54,5.13,1.61,6.69c1.07,1.56,2.57,2.35,4.48,2.35Z"/>
    <path class="cls-5" d="M309.01,98.01v-39.17h12.86l.7,8.02c1.12-3.06,2.7-5.24,4.75-6.55,2.04-1.31,4.26-1.96,6.64-1.96s4.52.71,6.13,2.14c1.61,1.42,2.95,3.87,4.03,7.32,1.24-3.46,3.03-5.9,5.38-7.32,2.35-1.42,4.83-2.14,7.45-2.14,3.74,0,6.77,1.2,9.11,3.61s3.5,5.62,3.5,9.64v26.42h-14.08v-22.84c0-1.7-.43-3.04-1.3-4.01s-2.02-1.45-3.47-1.45-2.59.48-3.43,1.45-1.26,2.31-1.26,4.01v22.84h-13.45v-22.84c0-1.7-.43-3.04-1.3-4.01-.87-.97-2.02-1.45-3.47-1.45s-2.62.48-3.45,1.45-1.24,2.31-1.24,4.01v22.84h-14.08Z"/>
    <path class="cls-5" d="M387.63,98.64c-3.76,0-6.83-.93-9.2-2.8s-3.56-4.74-3.56-8.62c0-2.87.64-5.19,1.91-6.94,1.27-1.75,3-3.07,5.17-3.94s4.6-1.41,7.29-1.59c3.27-.23,5.59-.58,6.97-1.03,1.38-.46,2.07-1.26,2.07-2.4v-.14c0-1-.4-1.78-1.19-2.33-.79-.55-1.87-.82-3.22-.82s-2.47.29-3.42.86c-.95.57-1.54,1.45-1.77,2.64l-12.68-1.26c.37-2.19,1.28-4.19,2.73-5.99,1.45-1.8,3.45-3.23,6.01-4.31,2.56-1.07,5.67-1.61,9.34-1.61s6.94.57,9.69,1.7c2.74,1.13,4.86,2.67,6.36,4.61,1.49,1.94,2.24,4.11,2.24,6.52v26.84h-13.17v-5.53h-.28c-1.19,2.2-2.73,3.77-4.62,4.73-1.89.96-4.11,1.44-6.66,1.44ZM392.18,89.74c1.59,0,3.02-.49,4.31-1.47s1.93-2.36,1.93-4.14v-3.22c-1.45.56-3.32,1.03-5.61,1.4-1.64.26-2.83.75-3.57,1.47-.75.72-1.12,1.59-1.12,2.59,0,1.1.38,1.93,1.14,2.5.76.57,1.73.86,2.93.86Z"/>
    <path class="cls-5" d="M442.42,58.84v10.23h-6.73v16.36c0,1.64.89,2.45,2.66,2.45.42,0,1.03-.05,1.84-.16.81-.11,1.34-.2,1.59-.3l1.68,10.05c-1.61.44-3.13.74-4.55.89-1.42.15-2.77.23-4.03.23-8.85,0-13.28-3.96-13.28-11.88v-17.66h-4.98v-10.23h4.98v-9.32h14.08v9.32h6.73Z"/>
    <path class="cls-5" d="M448.17,98.01v-39.17h14.08v39.17h-14.08ZM455.18,54.85c-1.92,0-3.55-.63-4.91-1.89s-2.03-2.78-2.03-4.56.68-3.32,2.03-4.57,2.99-1.87,4.91-1.87,3.55.62,4.91,1.87,2.03,2.77,2.03,4.57-.68,3.29-2.03,4.56-2.99,1.89-4.91,1.89Z"/>
    <path class="cls-5" d="M508.57,112.66h-14.08v-21.09h-.21c-.79,1.99-2.11,3.64-3.96,4.96-1.85,1.32-4.15,1.98-6.9,1.98s-5.34-.73-7.69-2.19c-2.35-1.46-4.22-3.67-5.62-6.64-1.4-2.97-2.1-6.7-2.1-11.21,0-4.74.74-8.59,2.21-11.55,1.47-2.95,3.37-5.12,5.71-6.5s4.79-2.07,7.36-2.07c2.92,0,5.3.73,7.13,2.17s3.12,3.18,3.87,5.19h.35v-6.87h13.94v53.82ZM488.6,87.71c1.94,0,3.46-.84,4.57-2.5,1.11-1.67,1.66-3.92,1.66-6.74s-.56-5.2-1.66-6.85c-1.11-1.65-2.63-2.47-4.57-2.47s-3.44.82-4.5,2.47c-1.06,1.65-1.59,3.93-1.59,6.85s.53,5.16,1.59,6.8c1.06,1.64,2.56,2.45,4.5,2.45Z"/>
    <path class="cls-5" d="M529.38,98.5c-2.76,0-5.16-.63-7.22-1.89s-3.64-3-4.76-5.22-1.68-4.75-1.68-7.6v-24.95h14.08v22c0,1.94.49,3.46,1.47,4.57.98,1.11,2.36,1.66,4.13,1.66s3.11-.55,4.13-1.66c1.03-1.11,1.54-2.63,1.54-4.57v-22h14.08v39.17h-13.21l-.24-8.83c-.96,2.66-2.42,4.88-4.38,6.66s-4.61,2.66-7.95,2.66Z"/>
    <path class="cls-5" d="M590.56,59.48v38.54h-14.15v-38.54h14.15Z"/>
    <path class="cls-5" d="M576.44,57.29v-11.42l46.55-.06v11.42h-15.59v40.78h-14.15v-40.78l-16.81.06Z"/>
  </g>
  <g>
    <path id="shape1" class="cls-4" d="M6.72,1.49h123.43c2.9,0,5.25,2.35,5.25,5.25v123.47c0,2.9-2.35,5.25-5.25,5.25H6.72c-2.9,0-5.25-2.35-5.25-5.25V6.74C1.47,3.84,3.82,1.49,6.72,1.49Z"/>
    <g id="group2">
      <g id="g1">
        <path id="shape264" class="cls-1" d="M96.76,89.05c-1.93-.33-4.28.1-5.62.87-1.35.77-3.73,4.5-3.73,4.5l-.41.43s1.83.1,4.1.9c2.27.79,5.21-.59,6.5-1.48,1.3-.9,4.93-4.99,4.93-4.99,0,0-.55.09-1.57.09-1-.01-2.27-.01-4.2-.33Z"/>
        <path id="shape267" class="cls-1" d="M66.73,77.37c-1.66.28-3.46,1.27-4.35,2.28-.89.99-1.79,4.69-1.79,4.69l-.2.45s1.51-.42,3.58-.39c2.07.02,4.08-1.93,4.88-3.01.81-1.09,2.64-5.42,2.64-5.42,0,0-.43.21-1.24.5-.82.27-1.86.62-3.52.9Z"/>
        <path id="shape270" class="cls-1" d="M29.45,60.79c-1.54-.33-7-.14-7-.14,0,0,.44.35,1.13,1.07.69.73,1.58,1.65,2.67,3.27,1.1,1.64,3.03,3.05,4.53,3.5,1.49.45,5.83-.41,5.83-.41h.57s-1.18-1.4-2.19-3.6c-.97-2.2-3.99-3.38-5.55-3.7Z"/>
        <path id="shape273" class="cls-1" d="M61.84,51.53c-1.36.43-2.77,1.47-3.42,2.41-.63.95-.98,4.16-.98,4.16l-.12.42s1.23-.53,2.98-.74c1.76-.21,3.24-2.08,3.8-3.09.55-1,1.61-4.86,1.61-4.86,0,0-.34.24-.99.55-.67.33-1.5.73-2.87,1.15Z"/>
        <path id="shape276" class="cls-1" d="M21.74,88.35c-1.53-1.85-4.77-2.18-6.35-2.06-1.58.1-6.79,1.75-6.79,1.75,0,0,.52.21,1.38.73.87.51,1.95,1.17,3.46,2.44,1.49,1.26,3.73,2.11,5.28,2.14,1.56.03,5.51-1.94,5.51-1.94l.55-.17s-1.49-1.04-3.04-2.89Z"/>
        <path id="shape279" class="cls-1" d="M49.24,60.09s-.05.34-.2.94c-.17.6-.36,1.34-.87,2.44-.5,1.09-.62,2.55-.38,3.47.24.93,2.07,2.92,2.07,2.92l.18.3s.35-1.06,1.18-2.29c.83-1.22.48-3.17.16-4.08-.32-.9-2.14-3.7-2.14-3.7Z"/>
        <path id="shape282" class="cls-1" d="M64.54,95.3c-1.32.44-2.65,1.48-3.24,2.4-.6.93-.86,4.05-.86,4.05l-.11.38s1.18-.53,2.86-.79c1.69-.26,3.08-2.09,3.6-3.08.51-.98,1.43-4.74,1.43-4.74,0,0-.32.24-.95.56-.63.35-1.42.78-2.74,1.21Z"/>
        <path id="shape285" class="cls-1" d="M83.17,60.61c-1.95-.12-4.26.54-5.52,1.44-1.26.9-3.26,4.85-3.26,4.85l-.35.46s1.83-.08,4.17.49c2.34.55,5.13-1.11,6.33-2.14,1.21-1.03,4.38-5.45,4.38-5.45,0,0-.54.14-1.53.24-1.01.11-2.28.24-4.23.11Z"/>
        <path id="shape288" class="cls-1" d="M41.31,46.72c-.55.56-1.25,1.29-2.49,2.2-1.24.91-2.3,2.48-2.63,3.68-.3,1.18.48,4.59.48,4.59l.02.46s1.07-.97,2.77-1.82c1.71-.85,2.55-3.27,2.76-4.5.2-1.24-.1-5.54-.1-5.54,0,0-.26.36-.82.93Z"/>
        <path id="shape291" class="cls-1" d="M31.01,78.33c-.89-.64-4.44-2.1-4.44-2.1,0,0,.18.35.42,1.02.24.68.54,1.5.78,2.87.24,1.34,1.07,2.81,1.89,3.53.82.71,3.84,1.41,3.84,1.41l.36.17s-.35-1.23-.35-2.92c-.01-1.69-1.61-3.33-2.5-3.97Z"/>
        <path id="shape294" class="cls-1" d="M35.67,102.11c-1.88-.17-3.86,1.47-4.67,2.4-.81.94-2.77,4.75-2.77,4.75,0,0,.41-.17,1.17-.36.76-.19,1.72-.44,3.26-.58,1.53-.14,3.24-.91,4.13-1.77.87-.85,1.96-4.15,1.96-4.15l.21-.41s-1.4.27-3.29.11Z"/>
        <path id="shape297" class="cls-1" d="M83.19,109.05c-.53-.61-1.19-1.35-2.04-2.68-.83-1.33-2.33-2.52-3.52-2.91-1.17-.41-4.67.16-4.67.16h-.46s.9,1.14,1.63,2.92c.73,1.77,3.11,2.81,4.34,3.1,1.22.29,5.58.3,5.58.3,0,0-.33-.29-.87-.89Z"/>
        <path id="shape300" class="cls-1" d="M13.88,102.84c-1.18.28-4.91,2.18-4.91,2.18,0,0,.42.1,1.14.38.72.28,1.62.63,2.92,1.4,1.3.78,3.1,1.14,4.28.97,1.17-.16,3.93-2.17,3.93-2.17l.39-.2s-1.27-.59-2.68-1.79c-1.41-1.2-3.89-1.04-5.07-.77Z"/>
        <path id="shape303" class="cls-1" d="M97.5,105.64c-1.1-.86-2.74-1.4-3.86-1.38-1.1.02-3.89,1.57-3.89,1.57l-.39.14s1.12.69,2.28,1.97c1.17,1.29,3.51,1.41,4.62,1.3,1.13-.12,4.81-1.47,4.81-1.47,0,0-.38-.15-1.03-.49-.63-.35-1.43-.78-2.55-1.65Z"/>
        <path id="shape306" class="cls-1" d="M69.26,56.42s-.15.34-.47.91c-.34.58-.77,1.3-1.59,2.3-.82.99-1.36,2.48-1.38,3.51,0,1.03,1.33,3.62,1.33,3.62l.11.37s.67-1,1.88-2.04c1.21-1.04,1.4-3.17,1.31-4.22-.08-1.03-1.19-4.46-1.19-4.46Z"/>
        <path id="shape309" class="cls-1" d="M80.9,85.23c-1.35-.23-3.01.07-3.95.61-.95.53-2.6,3.15-2.6,3.15l-.28.29s1.27.07,2.86.63c1.6.55,3.65-.42,4.55-1.04.91-.63,3.45-3.49,3.45-3.49,0,0-.39.06-1.09.06s-1.6,0-2.94-.21Z"/>
        <path id="shape312" class="cls-1" d="M38.53,75.76c-.96.29-1.95,1-2.39,1.66-.45.64-.71,2.89-.71,2.89l-.09.28s.87-.36,2.07-.5c1.22-.15,2.27-1.42,2.66-2.12.38-.7,1.15-3.37,1.15-3.37,0,0-.24.17-.7.38s-1.05.5-2,.78Z"/>
        <path id="shape315" class="cls-1" d="M75.43,95.57c-.96.29-1.95,1-2.39,1.66-.45.64-.71,2.89-.71,2.89l-.09.28s.87-.36,2.07-.5c1.22-.15,2.27-1.42,2.66-2.12.38-.7,1.15-3.37,1.15-3.37,0,0-.24.17-.7.38s-1.04.5-2,.78Z"/>
        <path id="shape318" class="cls-3" d="M28.55,87.41s.03.26.02.71c0,.47-.03,1.04-.19,1.92s0,1.95.3,2.58c.3.63,1.85,1.76,1.85,1.76l.18.19s.07-.83.42-1.87c.37-1.02-.18-2.39-.54-2.99-.36-.6-2.03-2.31-2.03-2.31h0Z"/>
        <path id="shape321" class="cls-1" d="M42.34,57.21s-.08.27-.3.73c-.23.46-.51,1.04-1.08,1.86-.57.81-.89,1.99-.85,2.78.06.79,1.24,2.71,1.24,2.71l.1.28s.45-.82,1.32-1.68c.86-.87.88-2.53.76-3.32-.12-.8-1.18-3.36-1.18-3.36Z"/>
        <path id="shape324" class="cls-1" d="M75.64,51.18s-.09.28-.3.74c-.21.46-.48,1.05-1.04,1.88-.55.82-.86,2-.79,2.79.07.79,1.29,2.68,1.29,2.68l.11.27s.43-.82,1.29-1.7c.86-.88.83-2.53.7-3.33-.15-.8-1.25-3.34-1.25-3.34Z"/>
        <path id="shape327" class="cls-1" d="M55.66,72.02s0,.29-.09.79c-.08.51-.17,1.14-.48,2.09-.32.95-.28,2.17,0,2.91.27.73,1.97,2.22,1.97,2.22l.18.24s.19-.9.77-2c.57-1.07.11-2.66-.24-3.38-.35-.71-2.11-2.87-2.11-2.87Z"/>
        <path id="shape330" class="cls-1" d="M50.63,52.46s.06.28.1.79c.05.52.08,1.15,0,2.15-.09.98.21,2.17.65,2.83.45.65,2.43,1.73,2.43,1.73l.23.18s-.01-.93.29-2.12c.32-1.18-.5-2.62-.99-3.25-.51-.62-2.72-2.31-2.72-2.31Z"/>
        <path id="shape333" class="cls-1" d="M50.62,84.88c-.85-.88-2.5-.95-3.29-.85s-3.38,1.12-3.38,1.12c0,0,.27.09.72.33.45.24,1.03.53,1.83,1.12.8.6,1.96.95,2.76.93.79-.03,2.73-1.17,2.73-1.17l.28-.1s-.8-.49-1.65-1.37Z"/>
        <path id="shape336" class="cls-1" d="M48.32,90.64s-.45.52-1.21.99c-.74.49-1.03,1.67-1.06,2.26-.03.59.33,2.59.33,2.59,0,0,.1-.18.34-.47.24-.29.53-.67,1.06-1.16.54-.5.96-1.29,1.04-1.86.09-.58-.46-2.13-.46-2.13l-.03-.21Z"/>
        <path id="shape339" class="cls-1" d="M38.96,88.81c-.78.17-3.28,1.39-3.28,1.39,0,0,.28.07.76.27.47.19,1.06.44,1.9.96.85.53,2.04.79,2.82.69.78-.1,2.63-1.39,2.63-1.39l.26-.12s-.83-.41-1.76-1.22c-.9-.82-2.55-.76-3.33-.58Z"/>
        <path id="shape342" class="cls-1" d="M28.74,49.71s.08.28.17.78c.08.51.18,1.15.18,2.14s.41,2.15.89,2.75c.5.62,2.56,1.51,2.56,1.51l.25.17s-.09-.93.12-2.13c.21-1.2-.71-2.57-1.27-3.15-.55-.59-2.9-2.08-2.9-2.08Z"/>
        <path id="shape345" class="cls-1" d="M67.4,72.14c-.99-.15-2.19.08-2.87.46-.69.39-1.88,2.31-1.88,2.31l-.2.21s.92.05,2.09.44c1.16.41,2.65-.3,3.31-.77.65-.46,2.48-2.56,2.48-2.56,0,0-.27.05-.79.05-.5,0-1.15.01-2.13-.15Z"/>
        <path id="shape348" class="cls-1" d="M19.63,75.11s.06.28.1.79c.05.52.09,1.15.01,2.15-.08.99.24,2.17.68,2.82.44.64,2.43,1.7,2.43,1.7l.23.18s-.01-.93.29-2.11c.3-1.18-.52-2.63-1.01-3.25-.52-.62-2.73-2.29-2.73-2.29Z"/>
        <path id="shape351" class="cls-1" d="M21.86,97.18c-.72-.35-3.44-.96-3.44-.96,0,0,.18.23.42.68.25.44.57,1.02.91,1.95s1.1,1.88,1.77,2.3c.69.41,2.92.54,2.92.54l.29.08s-.41-.83-.62-2.05-1.54-2.19-2.25-2.54Z"/>
        <path id="shape354" class="cls-1" d="M69.54,83.88s-.02.29-.11.79c-.1.51-.23,1.14-.57,2.08-.35.94-.38,2.14-.14,2.9.25.74,1.87,2.31,1.87,2.31l.18.24s.24-.9.86-1.95c.63-1.06.24-2.67-.09-3.4-.33-.76-2-2.97-2-2.97Z"/>
        <path id="shape357" class="cls-1" d="M78.54,75.44c-.35.38-.79.85-1.57,1.47-.78.62-1.44,1.65-1.61,2.43-.18.77.39,2.93.39,2.93l.02.3s.68-.65,1.75-1.23c1.08-.58,1.58-2.15,1.69-2.94.11-.8-.18-3.56-.18-3.56,0,0-.16.23-.5.61Z"/>
        <path id="shape360" class="cls-1" d="M85.47,75.18c-.96.28-1.95.99-2.39,1.65-.45.64-.71,2.89-.71,2.89l-.09.28s.87-.36,2.07-.5c1.22-.15,2.27-1.42,2.66-2.12.38-.7,1.15-3.37,1.15-3.37,0,0-.24.17-.7.38-.45.23-1.04.5-2,.79Z"/>
        <path id="shape363" class="cls-1" d="M89.23,98.53c-.99,0-2.13.41-2.75.91-.62.5-1.49,2.57-1.49,2.57l-.17.25s.92-.1,2.14.1c1.21.2,2.57-.73,3.14-1.29.57-.55,2.05-2.91,2.05-2.91,0,0-.27.08-.78.18-.52.07-1.15.17-2.15.18Z"/>
        <path id="shape366" class="cls-1" d="M91.99,79.47c-.88.46-1.71,1.34-2.04,2.06-.32.72-.15,2.98-.15,2.98l-.03.29s.78-.51,1.94-.88c1.17-.37,1.95-1.83,2.21-2.58.25-.77.48-3.53.48-3.53,0,0-.2.2-.61.51-.39.29-.92.69-1.8,1.15Z"/>
        <path id="shape369" class="cls-1" d="M81.89,50.72c-.89.46-1.7,1.35-2.03,2.08-.3.73-.14,2.98-.14,2.98l-.02.29s.77-.52,1.94-.89c1.17-.37,1.94-1.84,2.19-2.59.25-.77.47-3.53.47-3.53,0,0-.2.2-.61.52-.41.29-.92.69-1.8,1.15Z"/>
        <path id="shape372" class="cls-1" d="M57.79,43.72c-.33.41-.72.91-1.45,1.59-.74.67-1.31,1.75-1.43,2.53-.12.79.62,2.91.62,2.91l.05.29s.61-.7,1.65-1.37c1.05-.65,1.41-2.26,1.47-3.06.05-.8-.43-3.54-.43-3.54,0,0-.16.25-.46.64Z"/>
        <path id="shape375" class="cls-1" d="M82.52,71.79c-.21.27-.47.6-.96,1.04-.48.44-.86,1.14-.95,1.65-.07.52.41,1.91.41,1.91l.03.19s.41-.45,1.08-.88.92-1.48.96-2.01c.02-.52-.28-2.31-.28-2.31,0,0-.09.17-.29.42Z"/>
        <path id="shape378" class="cls-1" d="M78.63,46.1s-.02.18-.1.52c-.09.33-.19.72-.46,1.32-.25.6-.32,1.39-.18,1.9.14.5,1.14,1.58,1.14,1.58l.1.16s.19-.58.63-1.24c.44-.67.24-1.73.07-2.22-.19-.51-1.19-2.01-1.19-2.01Z"/>
        <path id="shape381" class="cls-1" d="M47.24,56.96c-.21.27-.47.6-.96,1.04-.48.44-.86,1.14-.95,1.65-.07.52.41,1.91.41,1.91l.03.19s.41-.45,1.08-.88.92-1.48.96-2.01c.02-.52-.29-2.31-.29-2.31,0,0-.08.17-.28.42Z"/>
        <path id="shape384" class="cls-1" d="M34.96,46.75s-.06.18-.2.47c-.16.29-.34.68-.73,1.21-.38.52-.61,1.29-.59,1.81.02.52.78,1.78.78,1.78l.07.18s.3-.52.88-1.07c.57-.56.61-1.64.54-2.17-.08-.52-.74-2.21-.74-2.21Z"/>
        <path id="shape387" class="cls-1" d="M39.5,70.12c-.46.25-1.81,1.46-1.81,1.46,0,0,.18,0,.52.02.33.05.74.09,1.38.28.62.18,1.42.14,1.9-.07.46-.19,1.4-1.33,1.4-1.33l.15-.12s-.6-.1-1.32-.46c-.72-.36-1.75-.02-2.21.23Z"/>
        <path id="shape390" class="cls-1" d="M44.48,79.1c-.47-.23-2.25-.6-2.25-.6,0,0,.11.15.28.43.16.29.37.67.6,1.26.23.61.74,1.22,1.19,1.49.44.26,1.92.33,1.92.33l.18.05s-.27-.55-.42-1.34c-.15-.77-1.03-1.39-1.5-1.61Z"/>
        <path id="shape393" class="cls-1" d="M13.91,80.41c-.52-.08-2.32.09-2.32.09,0,0,.16.1.41.34.24.23.55.52.94,1.04.41.52,1.07.95,1.58,1.07.51.12,1.93-.25,1.93-.25h.2s-.43-.45-.79-1.16c-.39-.72-1.42-1.05-1.94-1.13Z"/>
        <path id="shape396" class="cls-1" d="M13.28,95.69s.06.18.08.52c.05.33.09.74.06,1.4-.03.64.19,1.41.51,1.83.3.42,1.62,1.07,1.62,1.07l.15.11s-.02-.61.15-1.39c.18-.79-.39-1.71-.73-2.1-.35-.41-1.83-1.44-1.83-1.44Z"/>
        <path id="shape399" class="cls-1" d="M74.36,68.82c-.33-.03-.76-.06-1.39-.23-.63-.17-1.43-.09-1.89.12-.47.21-1.36,1.39-1.36,1.39l-.15.14s.61.09,1.34.41c.72.34,1.75-.03,2.2-.3.45-.26,1.77-1.51,1.77-1.51,0,0-.19.02-.52-.01Z"/>
        <path id="shape402" class="cls-1" d="M98.2,97.62c-.27.2-.6.47-1.16.78-.56.33-1.1.93-1.3,1.4-.2.47-.05,1.94-.05,1.94l-.02.19s.5-.35,1.26-.61c.76-.26,1.24-1.22,1.4-1.73.15-.5.25-2.31.25-2.31,0,0-.12.14-.38.34Z"/>
        <path id="shape405" class="cls-1" d="M88.11,107.3c-.21-.26-.5-.58-.83-1.13-.34-.56-.95-1.06-1.43-1.24-.48-.17-1.95.03-1.95.03h-.19s.37.47.65,1.23c.29.74,1.27,1.18,1.78,1.32s2.32.18,2.32.18c0,0-.14-.14-.35-.39Z"/>
        <path id="shape408" class="cls-1" d="M76.04,91.46c-.64.06-1.36.39-1.74.76-.37.36-.82,1.77-.82,1.77l-.09.17s.6-.12,1.4-.06c.8.06,1.62-.63,1.96-1.03.34-.41,1.16-2.02,1.16-2.02,0,0-.17.07-.5.16-.32.08-.72.18-1.38.25Z"/>
        <path id="shape411" class="cls-1" d="M99.13,83.15c-.53-.39-1.27-.64-1.8-.62-.52.02-1.8.76-1.8.76l-.18.06s.53.32,1.07.9,1.62.64,2.14.58c.53-.06,2.22-.7,2.22-.7,0,0-.17-.06-.47-.21-.28-.17-.65-.37-1.17-.76Z"/>
        <path id="shape414" class="cls-1" d="M59.33,63.39c-.64.03-1.39.34-1.76.69-.38.35-.89,1.73-.89,1.73l-.1.17s.6-.09,1.4,0c.79.09,1.66-.56,2.01-.95.36-.38,1.24-1.97,1.24-1.97,0,0-.17.06-.5.14-.33.08-.73.17-1.4.2Z"/>
        <path id="shape417" class="cls-1" d="M43.38,94.39c-.79.18-1.36,1.09-1.56,1.58-.2.49-.48,2.29-.48,2.29,0,0,.15-.12.42-.32.28-.18.64-.41,1.24-.67s1.18-.8,1.42-1.26c.24-.46.24-1.94.24-1.94l.02-.18s-.52.3-1.3.5Z"/>
        <path id="shape420" class="cls-1" d="M38.71,82.6c-.38.09-1.57.73-1.57.73,0,0,.14.02.37.11.24.08.52.19.95.43.42.24.99.34,1.38.29.38-.07,1.24-.72,1.24-.72l.12-.07s-.41-.18-.87-.56c-.45-.38-1.26-.32-1.62-.21Z"/>
        <path id="shape423" class="cls-1" d="M32.46,71.58s0,.18-.03.52c-.05.33-.09.74-.28,1.38-.18.62-.14,1.42.07,1.91.19.46,1.33,1.4,1.33,1.4l.12.15s.11-.6.46-1.32c.35-.71.02-1.75-.23-2.21-.24-.45-1.44-1.82-1.44-1.82Z"/>
        <path id="shape426" class="cls-1" d="M26.72,104.37s-.5.35-1.25.62c-.76.26-1.23,1.23-1.39,1.74-.16.51-.25,2.31-.25,2.31,0,0,.12-.14.39-.35.25-.2.6-.47,1.16-.79.56-.32,1.08-.91,1.29-1.4.19-.49.03-1.95.03-1.95v-.18Z"/>
      </g>
      <g id="g2">
        <path id="shape3" class="cls-2" d="M59.15,84.09c-1.01-1.65-2.39-3.46-3.8-5.34-1.39-1.87-2.8-3.79-3.83-5.63-.76-1.32-1.61-2.34-2.54-3.11-1.39-1.17-2.92-1.83-4.5-2.46-1.59-.62-3.26-1.23-5.03-2.27-1.04-.6-1.81-1.4-2.42-2.31-.9-1.34-1.81-2.8-2.05-4.11-.19-2.05-.03-3.07-.45-4.48-.64.46-.65,2-.73,2.99-.02.2.09,2.68.34,3.25.43,1.27,1.13,2.26,1.85,3.32.72,1.07,1.98,2.08,3.24,2.81,2.57,1.5,4.23,2.1,6.12,2.97.95.43,1.79.9,2.56,1.56.79.67,1.49,1.49,2.18,2.67,8.07,9.96,9.92,18.18,6.92,30.91,1.5-2.05,2.46-4.48,3.08-6.89.61-2.43.86-4.85.86-6.9,0-1.55-.14-2.87-.38-3.87-.2-.98-.73-2.01-1.41-3.1h0Z"/>
        <path id="shape4" class="cls-2" d="M50.68,74.85s.6,1.49,1.32,3.11c.37.81.78,1.67,1.16,2.4.19.36.37.7.56.98.18.29.36.54.56.76.21.21.51.56.81.99.91,1.3,1.98,3.34,2.49,5.03.14.5.24,1.32.24,2.28.07,3.58-.42,4.99-2.3,7.85l-4.71,7.48c-1.05,1.11-2.15,2.32-3.2,3.64-1.7,2.17-3.43,4.58-4.72,6.88-.64,1.16-1.19,2.29-1.59,3.35-.39,1.06-.63,2.06-.63,3-.15,2.28-.67,4.16-2.05,6.66-1.31,1.69-1.21,1.99-5.83,6.21,8.21.05,16.31.04,24.47-.02-2.74-1.93-4.24-3.24-5.67-4.5-.71-.61-1.41-1.4-1.92-2.32-.52-.93-.85-2-.85-3.28,0-.27.01-.55.05-.85.18-1.53.62-3.35,1.22-5.22,4.81-11.63,18.91-26.44.6-44.45h0Z"/>
        <path id="shape5" class="cls-2" d="M58.26,50.16c-.42,0-2.69,3.14-2.95,4.88-.28,1.76-.55,4-.55,6.09,0,3.62-1.51,6.78-2.19,7.76-.63.91-1.69,2.37-3.03,4.14l1.72,2.74,1.38-.9-.85-1.27c-.39.23.99-1.5,2.69-4.69,1.04-2.02,1.93-4.85,1.93-7.77,0-1.95-.24-4.5.02-6.19.2-1.53,1.55-3.1,1.84-4.78h0Z"/>
        <path id="shape7" class="cls-2" d="M77.66,51.68c-.16-.29,1.13,4.12-.21,6.04-.21.29-.35.73-4.53,5.67-2.32,1.83-5.53,4.24-8.3,6.59-1.84,1.57-3.79,3.38-4.87,4.96-1.08,1.79-1.42,3.95-2.02,5.95-.19.63-.36,1.18-.47,1.57l1.5,1.31s.58-3.89,1.43-6.99c.36-1.59,1.66-2.75,2.78-3.85,2.99-2.88,7.55-6.26,10.63-8.69,2.45-1.93,3.81-4.58,4.57-6.75.77-2.15.22-3.97.22-4.01l-.73-1.82Z"/>
        <path id="shape9" class="cls-2" d="M89.04,86.5c-.71.62-1.56,1.13-1.99,1.86-.3.49-.7,1.2-1.19,2.04-.73,1.25-1.67,2.79-2.69,4.17-1.01,1.4-2.14,2.65-3.19,3.33-.71.46-1.84,1-3.19,1.57-4.08,1.65-8.65,2.55-12.99,3.54-6.01,1.38-10.54,4.79-10.62,4.87l1.1,1.22c-4.15,6.65,4.2-2.48,9.89-4.49,2.94-.68,5.06-.85,8.48-1.94,1.71-.54,3.35-1.12,4.76-1.68,1.41-.59,2.59-1.15,3.47-1.71.88-.59,1.7-1.39,2.49-2.3,1.16-1.35,2.21-2.96,3.09-4.4.88-1.42,1.58-2.7,1.98-3.38.74-.87,2.49-2.71,3.58-3.46,1.03-.63,3.98-.75,3.55-.91-1.04-.36-1.27-.22-2.67-.27-1.36.21-2.65.92-3.85,1.95h0Z"/>
        <path id="shape12" class="cls-2" d="M80.43,80.46s-1.51.48-3.17,1.71c-1.65,1.21-3.55,3.12-4.46,5.89-.9,2.68-1.16,5.19-1.39,7.15-.11.99-.21,1.84-.36,2.5-.16.67-.36,1.12-.61,1.35-.33.33-.82.73-1.36,1.14-.82.62-1.78,1.25-2.52,1.73-.37.24-.69.43-.91.58-.11.07-.2.12-.27.16-.06.05-.09.06-.09.06l.56.95s.97-.58,2.12-1.34c.57-.37,1.19-.8,1.77-1.23s1.09-.86,1.49-1.24c.48-.49.72-1.15.89-1.9.26-1.14.36-2.55.57-4.19.2-1.62.51-3.45,1.15-5.37.82-2.47,2.55-4.22,4.09-5.36.77-.56,1.39-1.08,1.91-1.35.79-.57,1.92-1.52,1.75-1.49l-1.16.24Z"/>
        <path id="shape16" class="cls-2" d="M93.46,101.44c-.27.33-1,.75-2.14,1.31-.81.41-1.76.58-2.75.58-2.1,0-4.34-.74-5.85-1.21-.62-.19-1.48-.33-2.46-.44-2.92-.35-6.81-.49-6.82-.49l-.05,1.08s.1,0,.29.01c.69.03,2.4.11,4.19.25.89.08,1.79.17,2.59.27s1.5.23,1.93.36c1.5.45,3.83,1.24,6.17,1.24,1.1,0,2.21-.17,3.22-.68,1.22-.6,1.93-1.15,2.34-1.65.43-.5.54-.94.54-1.22,0-.14-.14-.69-.22-.73-.11-.1-.28.61-1,1.3h0Z"/>
        <path id="shape18" class="cls-2" d="M42.37,99.25c-2.51-1.21-5.3-1.54-7.25-1.98-1.96-.44-3.58-.81-4.84-1.61-.59-.37-1.12-.99-1.62-1.79-.77-1.21-1.44-2.79-2.22-4.43-.78-1.65-1.67-3.34-2.87-4.76-.82-.97-1.63-1.6-2.37-1.97-.74-.38-1.44-.52-2.02-.52-1.12,0-1.8.49-1.86.53-.56.35-1.21.79-1.01,1.09.15.25,2.5-.71,3.21-.65.42.04.57.22,1.18.52.6.32,1.29.83,2.04,1.71,1.47,1.73,2.48,4.02,3.47,6.13.5,1.06.97,2.06,1.53,2.94.55.87,1.17,1.62,1.96,2.13,1.49.95,3.24,1.31,5.17,1.76,1.94.44,4.1.95,6.49,2.1,2.34,1.12,4.41,3.05,5.86,4.68.73.82,1.31,1.58,1.7,2.12.24.32.6.86.6.86l2.12-1.82c-.16-.34-1.55-1.02-3.08-2.73-1.51-1.73-3.64-3.08-6.2-4.31h0Z"/>
        <path id="shape20" class="cls-2" d="M37.78,99.26c-1.69.18-3.76.52-5.37,1.12-2.98,1.13-6.43,2.04-9.55,2.04-1.54,0-2.73-.3-3.53-.61-.39-.14-.82-.33-1.17-.56l-1.67-1.65c-.2.3.44,1.46,1.03,2.53.58.42,1.98,1.39,5.35,1.39s6.86-.97,9.93-2.12c1.43-.54,3.46-.88,5.09-1.05.74-.08,1.68-.35,3.34,0l-.44-1.3s-1.32.03-3.02.23h0Z"/>
        <path id="shape22" class="cls-2" d="M34.05,95.49c-.5-.54-.9-1.01-.91-1.56,0-.62.02-1.35.35-2.08.32-.74.56-1.54.84-2.33.56-1.5.99-3.6.99-5.52,0-.96-.1-1.87-.38-2.66-.17-.45-.23-.97-.23-1.49,0-.74.15-1.5.27-2.06.08-.28.15-.51.2-.67.05-.14.22-1.37.11-1.29l-.64.79c-.17.2-1.04,1.45-1.05,3.22,0,.61.08,1.25.29,1.86s.32,1.41.32,2.29c0,1.75-.41,3.77-.92,5.13-.26.69-.65,1.44-.99,2.24-.35.79-.64,1.62-.64,2.49,0,.8.28,1.62.95,2.35,1.92,2.06,3.19,2.26,3.3,2.3.09-.35.15-.55.25-.9,2.37.6-.41-.28-2.11-2.11h0Z"/>
        <path id="shape24" class="cls-2" d="M58.06,93.5c-.28-1.18-.95-2.81-1.81-4.43-.87-1.62-1.9-3.22-2.96-4.3-.83-.83-1.94-1.39-3.1-1.74-1.17-.35-2.42-.5-3.61-.5-.81,0-1.6.07-2.3.19-1.43.26-2.89,1.02-3.99,1.7-1.12.68-1.58.85-1.89,1.31l-1,2.42c-.32.69,2.03-2.37,3.51-3.13,1.05-.54,2.45-1.02,3.57-1.22.63-.11,1.35-.17,2.12-.17,1.09,0,2.24.12,3.29.45,1.05.3,1.98.79,2.64,1.46.95.94,1.64,2.48,2.46,4.04.82,1.55,2.1,5.71,2.34,6.74l1.56.41s-.02-.06-.06-.19c-.11-.39-.38-1.4-.77-3.03h0Z"/>
        <path id="shape26" class="cls-2" d="M47.48,89.59c-.87.34-1.65.87-2.49,1.53-.87.65-1.83,1.44-3.09,2.31-.25.17-2.35,1.57-3.37.67-.76-.83-1.04-2.21-1.05-2v1.15c.41,1.26.81,1.8,2.07,1.89,1.57.11,2.05-.21,2.97-.82,1.74-1.18,2.92-2.23,3.92-2.93,1.01-.69,1.86-1.06,2.95-1.06,2.22,0,6.2.4,6.8.47l.12-1.09s-4.32-.49-6.91-.49c-.71.01-1.34.14-1.93.36h0Z"/>
      </g>
    </g>
  </g>
</svg>